P2
9 9
255
255 114 109 109 61 65 68 71 255
115 114 109 108 56 94 93 73 76
115 114 110 108 50 95 92 92 78
115 114 110 107 40 96 96 91 79
115 113 110 107 20 103 97 90 81
116 113 111 107 103 102 98 89 82
116 113 111 106 104 102 98 87 84
116 112 111 106 104 101 99 86 85
255 112 112 105 105 101 100 100 255
