P2
12 10
255
230 230 225 225 218 218 209 208 151 156 160 164
230 229 225 224 218 217 209 207 145 195 194 167
230 229 225 224 219 217 210 207 137 196 193 170
230 229 226 224 219 217 210 206 125 197 192 172
231 229 226 223 219 216 211 206 100 197 191 174
231 228 226 223 220 216 211 205 205 198 190 176
231 228 226 223 220 215 212 212 204 199 188 178
231 228 227 223 220 215 215 212 203 200 187 180
231 228 227 222 221 221 214 213 203 201 186 182
232 227 227 222 222 221 214 213 202 201 185 183
