P2
6 6
255
140 121 194 185 181 195 135 124 148 126 197 184 169 151 131 191 183 111 187 
160 154 127 176 109 152 139 143 162 167 124 143 126 188 176 155 126 
