P2
5 6
255
228 200 28 196 100
144 180 224 168 0
96 124 212 140 16
208 88 204 104 148
52 160 172 248 192
20 8 72 112 80
