P2
7 7
255
2 8 5 2 9 4 12
13 72 74 80 90 94 5
3 88 157 162 173 76 15
15 71 170 255 178 83 11
12 95 168 181 159 93 14
8 89 92 70 81 97 2
0 15 9 5 4 8 1
