P2
5 6
255
10 13 18 12 11 11 10 17 10 19 16 17 19 11 12 18 18 17 16 17 13 12 19 13 15 16 
10 11 19 14 
